
<svg xmlns="http://www.w3.org/2000/svg" version="1.1" xmlns:xlink="http://www.w3.org/1999/xlink" preserveAspectRatio="none" x="0px" y="0px" width="720px" height="340px" viewBox="0 0 720 340">
<defs>
<g id="Layer0_0_FILL">
<path fill="#0976BE" stroke="none" d="
M 58.9 218.9
Q 53 217.35 45.05 217.2
L 14.05 217.2 14.05 310.25 38.65 310.25 38.65 274.6 46.75 274.75
Q 53.95 274.75 59.6 272.9 65.25 271.15 69.25 267.45 73.35 263.85 75.4 258.5 77.35 253.15 77.35 246.05
L 77.35 245.9
Q 77.35 238.2 75.2 232.6 73.1 226.95 68.75 223.45 64.85 220.4 58.9 218.9
M 44.75 235.1
Q 47.4 235.6 48.8 236.6 50.5 237.8 51.35 240.25 52.3 242.7 52.3 246.2
L 52.3 246.3
Q 52.3 249.8 51.35 252.15 50.5 254.55 48.65 255.65 47.3 256.65 44.7 257.05
L 38.35 257.35 38.35 234.6 44.75 235.1
M 332.7 245.8
Q 330.55 241.95 327.05 240.15 323.4 238.25 318.2 238.25
L 312.55 238.9 307.4 240.9
Q 304.9 242.15 303.15 244.1 301.45 246.05 300.35 248.55
L 300.9 237 300.9 217.2 277.45 217.2 277.45 310.25 300.9 310.25 300.9 266.4 301.25 261.4 302.4 258.3 304.45 256.65 307 256.05
Q 308.8 256.05 310.1 256.95 311.3 257.75 311.85 259.4
L 312.4 261.9 312.6 310.25 335.75 310.25 335.75 262.8
Q 335.75 257.05 334.95 252.8 334.2 248.55 332.7 245.8
M 375.85 236.25
Q 369.8 236.25 365.05 237.35 360.2 238.5 356.6 240.75 352.25 243.4 350.1 247.55 347.95 251.7 347.95 257.4 347.95 263.25 350.2 267.7 352.35 272.05 356.7 275.1
L 362.3 277.95 372.8 282.1
Q 377.1 283.75 379.25 285.7 381.35 287.65 381.35 290.05
L 380.9 292.65 379.45 294.45 377.2 295.55 374.45 295.9 371.3 295.2
Q 370 294.6 369.25 293.25
L 368.35 290.2 368.05 285.95 347.4 286.1
Q 347.4 292.85 349.25 297.55 351.15 302.3 354.9 305.2 358.3 307.85 363.35 309.05 368.45 310.25 375.25 310.25 381.65 310.25 386.7 308.8 391.7 307.45 395.45 304.4 399.55 301.15 401.45 296.5 403.45 291.85 403.45 285.55
L 403.45 285.45
Q 403.45 280.2 401.2 276.3 399 272.35 394.5 269.45
L 388.8 266.7 378.15 262.85
Q 373.9 261.35 371.65 259.5 369.4 257.75 369.4 255.5
L 369.8 253.25 371.25 251.7 373.2 250.75 375.5 250.45 378.45 251.1 380.55 252.85 381.35 255.15 381.7 258.15 401.75 258.3
Q 401.75 252.45 399.9 248 398 243.65 394.4 241 391.2 238.65 386.55 237.4 382 236.25 375.85 236.25
M 470.2 245.8
Q 468.05 241.95 464.55 240.15 460.9 238.25 455.7 238.25
L 450.05 238.9 444.9 240.9
Q 442.4 242.15 440.65 244.1 438.95 246.05 437.85 248.55
L 438.25 244.4 438.4 217.2 414.95 217.2 414.95 310.25 438.4 310.25 438.4 266.4 438.75 261.4 439.9 258.3 441.95 256.65 444.5 256.05
Q 446.3 256.05 447.6 256.95 448.8 257.75 449.35 259.4
L 449.9 261.9 450.1 310.25 473.25 310.25 473.25 262.8
Q 473.25 257.05 472.45 252.8 471.7 248.55 470.2 245.8
M 255.2 238.95
L 255.2 218.65 231.8 218.65 231.8 238.95 223.45 238.95 223.45 254.25 231.8 254.25 231.8 290.65
Q 231.8 296.9 232.75 300.85 233.7 304.85 235.55 306.75 237.5 308.6 241.75 309.4 246.05 310.25 252.45 310.25
L 264.4 309.4 264.4 294 263.25 294.2 261.35 294.25 258.35 293.85 256.45 292.55 255.55 290.25 255.2 286.85 255.2 254.25 264.4 254.25 264.4 238.95 255.2 238.95
M 159.1 278.05
Q 156.85 282.65 156.85 289.2 156.85 294.2 157.95 298.1 159.1 302.05 161.3 304.85 163.55 307.5 166.95 308.85 170.4 310.25 175 310.25
L 180.45 309.5 185.35 307.9
Q 187.65 306.6 189.5 304.75
L 192.55 300.35 193.3 306.6 193.7 308.3 215.95 308.3 214.2 303 213.85 299.55 213.7 261.9
Q 213.7 254.85 212.35 249.8 210.95 244.8 208.2 242.15 205.55 239.35 200.4 238 195.2 236.55 187.85 236.55 180.55 236.55 175.25 237.7 169.95 238.8 166.75 241.05 162.85 243.7 160.8 248.45 158.85 253.3 158.85 259.8
L 179.45 259.95 179.8 255.95 180.85 253
Q 181.5 251.8 182.95 251.1
L 186.4 250.5 188.75 250.95 190.55 252.35 191.85 254.3 192.25 256.6
Q 192.25 259.65 189.95 261.9 187.65 264.15 183.1 265.4
L 171.35 268.65 165.9 270.7
Q 161.3 273.35 159.1 278.05
M 179.45 286.4
L 180 282.1 181.5 279.35 183.75 278.1 189.15 275.85 191.4 274.65 192.25 273.75 191.5 288.8 190.15 292.1 188.05 293.95 185.35 294.5 182.65 293.95 180.85 292.25 179.8 289.75 179.45 286.4
M 138.9 242.15
Q 136.25 239.35 131.1 238 125.9 236.55 118.55 236.55 111.25 236.55 105.95 237.7 100.65 238.8 97.45 241.05 93.55 243.7 91.5 248.45 89.55 253.3 89.55 259.8
L 110.15 259.95 110.5 255.95 111.55 253
Q 112.2 251.8 113.65 251.1
L 117.1 250.5 119.45 250.95 121.25 252.35 122.55 254.3 122.95 256.6
Q 122.95 259.65 120.65 261.9 118.35 264.15 113.8 265.4
L 102.05 268.65 96.6 270.7
Q 92 273.35 89.8 278.05 87.55 282.65 87.55 289.2 87.55 294.2 88.65 298.1 89.8 302.05 92 304.85 94.25 307.5 97.65 308.85 101.1 310.25 105.7 310.25
L 111.15 309.5 116.05 307.9
Q 118.35 306.6 120.2 304.75
L 123.25 300.35 124 306.6 124.4 308.3 146.65 308.3 144.9 303 144.55 299.55 144.4 261.9
Q 144.4 254.85 143.05 249.8 141.65 244.8 138.9 242.15
M 112.2 279.35
L 114.45 278.1 121 275.3 122.1 274.65 122.95 273.75 122.2 288.8 120.85 292.1 118.75 293.95 116.05 294.5 113.35 293.95 111.55 292.25 110.5 289.75 110.15 286.4 110.7 282.1 112.2 279.35
M 557.25 307.2
L 580.4 307.2 580.4 214.15 557.25 214.15 557.25 307.2
M 536.5 242.15
Q 533.85 239.35 528.7 238 523.5 236.55 516.15 236.55 508.85 236.55 503.55 237.7 498.25 238.8 495.05 241.05 491.15 243.7 489.1 248.45 487.15 253.3 487.15 259.8
L 507.75 259.95 508.1 255.95 509.15 253
Q 509.8 251.8 511.25 251.1
L 514.7 250.5 517.05 250.95 518.85 252.35 520.15 254.3 520.55 256.6
Q 520.55 259.65 518.25 261.9 515.95 264.15 511.4 265.4
L 499.65 268.65 494.2 270.7
Q 489.6 273.35 487.4 278.05 485.15 282.65 485.15 289.2 485.15 294.2 486.25 298.1 487.4 302.05 489.6 304.85 491.85 307.5 495.25 308.85 498.7 310.25 503.3 310.25
L 508.75 309.5 513.65 307.9
Q 515.95 306.6 517.8 304.75
L 520.85 300.35 521 302.6 522 308.3 544.25 308.3 542.5 303 542.15 299.55 542 261.9
Q 542 254.85 540.65 249.8 539.25 244.8 536.5 242.15
M 519.7 274.65
L 520.55 273.75 519.8 288.8 518.45 292.1 516.35 293.95 513.65 294.5 510.95 293.95 509.15 292.25 508.1 289.75 507.75 286.4 508.3 282.1 509.8 279.35 512.05 278.1 519.7 274.65
M 650.25 261.9
Q 650.25 254.85 648.9 249.8 647.5 244.8 644.75 242.15 642.1 239.35 636.95 238 631.75 236.55 624.4 236.55 617.1 236.55 611.8 237.7 606.5 238.8 603.3 241.05 599.4 243.7 597.35 248.45 595.4 253.3 595.4 259.8
L 616 259.95 616.35 255.95 617.4 253
Q 618.05 251.8 619.5 251.1
L 622.95 250.5 625.3 250.95 627.1 252.35 628.4 254.3 628.8 256.6
Q 628.8 259.65 626.5 261.9 624.2 264.15 619.65 265.4
L 607.9 268.65 602.45 270.7
Q 597.85 273.35 595.65 278.05 593.4 282.65 593.4 289.2 593.4 294.2 594.5 298.1 595.65 302.05 597.85 304.85 600.1 307.5 603.5 308.85 606.95 310.25 611.55 310.25
L 617 309.5 621.9 307.9
Q 624.2 306.6 626.05 304.75
L 629.1 300.35 629.25 302.6 630.25 308.3 652.5 308.3 650.75 303 650.4 299.55 650.25 261.9
M 618.05 279.35
L 620.3 278.1 626.85 275.3 627.95 274.65 628.8 273.75 628.05 288.8 626.7 292.1 624.6 293.95 621.9 294.5 619.2 293.95 617.4 292.25 616.35 289.75 616 286.4 616.55 282.1 618.05 279.35 Z"/>

<path fill="#DB3B34" stroke="none" d="
M 113.15 131.7
L 89.4 131.7 89.4 196.75 113.15 196.75 113.15 131.7
M 76.6 119.95
L 74.55 114.35 71.15 109.55
Q 69.15 107.45 66.6 106.05
L 59.45 103.5 47.35 102.5 14.35 102.5 14.35 196.75 49.9 196.75
Q 57 196.75 62.45 195.25 67.85 193.8 71.7 190.7 75.8 187.3 77.85 182.15 79.85 177.05 79.85 170.1
L 79.85 169.95
Q 79.85 165.1 78.8 161.35 77.8 157.55 75.8 154.85 73.5 151.9 70.05 150 66.6 148.05 62.05 147.5 65.9 146.65 68.9 144.65 71.85 142.75 73.8 139.8 75.5 137.1 76.4 133.7 77.35 130.25 77.35 126.05
L 76.6 119.95
M 46.2 121.1
Q 49.1 121.85 50.45 123.1 51.65 124.05 52.2 125.85
L 52.75 129.85 52.75 130
Q 52.75 133.1 51.7 135.15 50.7 137.25 48.7 138.35
L 44.8 139.55 38.95 139.8 38.95 120.4
Q 43.3 120.4 46.2 121.1
M 38.95 179
L 38.95 155.95 45.8 156.45 50.2 157.95
Q 52.35 159.2 53.35 161.7 54.45 164.15 54.45 167.7
L 54.45 167.8
Q 54.45 171.35 53.3 173.65 52.2 176 49.8 177.25 48.15 178.3 45.35 178.7
L 38.95 179
M 218.7 145.85
Q 218.7 140.6 217.8 136.75 217 132.8 215.25 130.15 213.2 126.9 209.6 125.4 206.1 123.8 201.2 123.8
L 194.95 124.4
Q 192.1 125.1 190.05 126.35 187.75 127.6 185.8 129.65
L 182.25 134.55
Q 179.95 129.15 175.75 126.5 171.5 123.8 165.25 123.8
L 159.5 124.5 154.45 126.6 150.1 130.05
Q 148.25 132.15 146.95 134.8 146.95 134.35 147 133.9
L 147.2 132.4 147.2 125.65 124.65 125.65 124.65 196.75 148.1 196.75 148.3 148.95 148.95 145.85
Q 149.6 143.85 150.95 142.9 152.3 141.85 154.3 141.85 156.1 141.85 157.4 142.8 158.65 143.7 159.2 145.7
L 159.7 148.4 159.95 196.75 183.4 196.75 183.4 151.15 183.75 147.65 184.95 144.65
Q 185.6 143.3 186.95 142.6
L 189.9 141.85 192.5 142.6
Q 193.55 143.3 194.1 144.8
L 194.7 147.35 194.95 150.75 194.95 196.75 218.7 196.75 218.7 145.85
M 230.2 136.25
Q 228.35 141.05 228.35 147.5
L 249.25 147.6 249.5 143.55 250.6 140.55
Q 251.25 139.35 252.7 138.65
L 256.2 138.05 258.6 138.5 260.45 139.85 261.75 141.85 262.1 144.25
Q 262.1 147.35 259.85 149.6 257.45 151.9 252.8 153.15
L 241 156.45 235.45 158.5
Q 232.25 160.35 230.2 163.2 229.3 164.45 228.6 165.9 226.25 170.6 226.25 177.25 226.25 182.35 227.35 186.25 228.4 189.75 230.2 192.25 230.5 192.65 230.8 193.05 233.05 195.75 236.5 197.1 237.4 197.45 238.35 197.75 241.15 198.55 244.6 198.55
L 250.15 197.85 255.1 196.2
Q 257.45 194.85 259.3 193
L 262.4 188.55 263.2 194.85 263.65 196.6 286.1 196.6 284.35 191.2 284.05 187.7 283.9 149.6
Q 283.9 142.45 282.55 137.35 281.05 132.25 278.3 129.55 276.25 127.4 272.7 126.15 271.6 125.7 270.35 125.4 268.4 124.85 266.2 124.55 264.15 124.2 261.85 124.1 259.85 123.9 257.65 123.9 250.3 123.9 244.85 125.1 239.55 126.2 236.35 128.5 232.35 131.15 230.3 136 230.25 136.15 230.2 136.25
M 261.25 162.5
L 262.1 161.6 261.4 176.8 260 180.2 257.9 182.1 255.1 182.55 252.45 182.1 250.6 180.35 249.5 177.8 249.25 174.4 249.7 170.05 251.25 167.25 260.15 163.2 261.25 162.5
M 652.8 336.45
L 652.8 320.15 231.35 320.15
Q 231.5 320.2 231.65 320.3
L 127 320.2
Q 129.15 320.25 131.2 320.3
L 108.25 320.3
Q 108.4 320.2 108.55 320.15
L 14.05 320.15 14.05 336.45 652.8 336.45
M 157.9 321.15
Q 157.6 321 157.3 320.9 167 321.25 157.9 321.15 Z"/>
</g>

<g id="Layer0_1_MEMBER_0_FILL">
<path fill="#DA3A33" stroke="none" d="
M -14.95 -12.45
Q -15.4 -13.5 -15.95 -14.25 -16.7 -13.75 -17.55 -13 -19.25 -11.45 -19.55 -10 -19.85 -8.5 -19.5 -7.25 -19.15 -6 -18.35 -5.5 -17 -8.05 -16.45 -11.15
L -16.8 -8.75
Q -17.15 -6.85 -17.3 -6.35
L -17.75 -5.3
Q -16.7 -5.1 -15.7 -6.15 -14.7 -7.2 -14.35 -8.9 -14.05 -10.35 -14.95 -12.45 Z"/>
</g>

<g id="Layer0_1_MEMBER_1_FILL">
<path fill="#DA3A33" stroke="none" d="
M -24.9 -15.9
L -26.6 -14.75
Q -28.35 -13.3 -28.75 -11.85 -29.25 -10.2 -28.8 -8.8 -28.4 -7.45 -27.4 -7.1 -27.4 -7.9 -27.3 -8.25 -27.15 -9.05 -26.65 -10.65 -26.45 -11.4 -25.85 -12.95 -26.8 -9.95 -26.75 -7.05 -25.8 -7.1 -24.95 -8.1 -24.05 -9.05 -23.7 -10.5 -23.3 -11.9 -24.05 -14.05 -24.45 -15.1 -24.9 -15.9 Z"/>
</g>

<g id="Layer0_1_MEMBER_2_FILL">
<path fill="#DA3A33" stroke="none" d="
M -33.3 -6.15
Q -33.15 -3.25 -31.75 -2.05 -30.7 -1.2 -29.55 -1 -28.4 -0.8 -27.85 -1.45
L -28.6 -1.9
Q -28.9 -2.05 -30.15 -3.2
L -31.5 -4.5
Q -29.65 -2.85 -27.6 -1.9 -27.35 -2.6 -27.7 -3.55 -28.1 -4.5 -29 -5.25 -29.85 -6 -31.65 -6.15 -32.55 -6.2 -33.3 -6.15 Z"/>
</g>

<g id="Layer0_1_MEMBER_3_FILL">
<path fill="#DA3A33" stroke="none" d="
M -6.9 -7.15
L -5.25 -9.5
Q -6.2771484375 -7.9662109375 -6.8 -6.35 -5.5 -6 -4.3 -7.8 -3.5 -9 -4.05 -11.25 -6.25 -10.8 -7.05 -9.6 -7.65 -8.7 -7.7 -7.8 -7.7 -6.85 -7.15 -6.5
L -6.9 -7.15 Z"/>
</g>

<g id="Layer0_1_MEMBER_4_FILL">
<path fill="#DA3A33" stroke="none" d="
M -6.3 5.35
L -4.7 7.7
Q -5.770703125 6.1939453125 -7.15 5.1 -7.9 6.15 -6.7 7.95 -5.8 9.1 -3.5 9.45 -3.1 7.2 -3.95 6.05 -4.6 5.15 -5.45 4.8 -6.3 4.45 -6.85 4.85
L -6.3 5.35 Z"/>
</g>

<g id="Layer0_1_MEMBER_5_FILL">
<path fill="#DA3A33" stroke="none" d="
M -2.75 4.7
L -0.95 5.9
Q -2.1369140625 5.1609375 -3.4 4.8 -3.5 5.25 -3.15 5.8 -2.85 6.4 -2.2 6.75 -1.2 7.4 0.6 6.9 0.2 5.15 -0.75 4.5 -1.5 4 -2.25 4 -2.95 4 -3.3 4.5
L -2.75 4.7 Z"/>
</g>

<g id="Layer0_1_MEMBER_6_FILL">
<path fill="#DA3A33" stroke="none" d="
M -8.9 10.05
L -9.1 7.75 -9.05 7.15
Q -9.6 7.2 -9.9 7.85 -10.25 8.5 -10.2 9.35 -10.1 10.55 -8.7 11.8 -7.45 10.4 -7.55 9.2 -7.6 8.45 -7.9 7.9 -8.25 7.3 -8.7 7.15 -8.985546875 8.53046875 -8.9 10.05 Z"/>
</g>

<g id="Layer0_1_MEMBER_7_FILL">
<path fill="#DA3A33" stroke="none" d="
M -37.95 9.25
L -36.65 7.5 -36.25 7.15
Q -36.65 6.85 -37.3 7.1 -37.95 7.3 -38.45 7.95 -39.15 8.85 -38.9 10.6 -37.2 10.4 -36.45 9.5 -35.45 8.15 -36.05 7.35 -37.095703125 8.1580078125 -37.95 9.25 Z"/>
</g>

<g id="Layer0_1_MEMBER_8_FILL">
<path fill="#DA3A33" stroke="none" d="
M -38.1 -0.7
L -37.55 -0.75
Q -37.75 -1.25 -38.4 -1.35 -39.1 -1.5 -39.85 -1.25 -40.9 -0.85 -41.65 0.8 -40 1.55 -38.95 1.15 -37.45 0.55 -37.45 -0.5 -38.69375 -0.411328125 -39.95 0.05
L -38.1 -0.7 Z"/>
</g>

<g id="Layer0_1_MEMBER_9_FILL">
<path fill="#DA3A33" stroke="none" d="
M -37.15 -11.5
L -35.9 -10.35 -35.65 -9.95
Q -35.35 -10.25 -35.5 -10.85 -35.6 -11.4 -36.1 -11.9 -36.8 -12.6 -38.3 -12.55 -38.3 -11.05 -37.65 -10.35 -36.7 -9.4 -35.85 -9.75 -36.3283203125 -10.70625 -37.15 -11.5 Z"/>
</g>

<g id="Layer0_1_MEMBER_10_FILL">
<path fill="#DA3A33" stroke="none" d="
M -0.8 -1.35
L -2.5 -1.1 -2.95 -1.15
Q -2.9 -0.7 -2.35 -0.45 -1.8 -0.15 -1.1 -0.25 -0.15 -0.35 0.7 -1.55 -0.4 -2.55 -1.35 -2.45 -2.75 -2.3 -2.95 -1.4 -1.8810546875 -1.221875 -0.8 -1.35 Z"/>
</g>

<g id="Layer0_1_MEMBER_11_FILL">
<path fill="#DA3A33" stroke="none" d="
M -27.4 -15.5
L -27.7 -15.1
Q -27.25 -15 -26.8 -15.35 -26.3 -15.7 -26.05 -16.4 -25.7 -17.3 -26.4 -18.65 -27.8 -18.05 -28.1 -17.15 -28.6 -15.8 -27.9 -15.25 -27.45 -15.85 -27.1 -16.7 -26.9 -17.15 -26.8 -17.45
L -27.1 -16.45
Q -27.2 -15.9 -27.4 -15.5 Z"/>
</g>

<g id="Layer0_1_MEMBER_12_FILL">
<path fill="#DA3A33" stroke="none" d="
M -17.35 -14.45
L -17.45 -14.95 -17.25 -17
Q -17.35 -15.7 -17.1 -14.5 -16.25 -14.85 -16.15 -16.15 -16.1 -17.1 -17.15 -18.25 -18.3 -17.25 -18.35 -16.25 -18.4 -15.55 -18.1 -15.05 -17.85 -14.5 -17.35 -14.45 Z"/>
</g>

<g id="Layer0_1_MEMBER_13_FILL">
<path fill="#DA3A33" stroke="none" d="
M -9.75 -13.7
L -9.45 -14.1
Q -9.15 -14.4 -8.65 -14.7
L -7.8 -15.3
Q -8.85 -14.5 -9.55 -13.55 -8.7 -13.1 -7.7 -13.95 -6.95 -14.5 -6.75 -16.05 -8.3 -16.25 -9 -15.65 -9.6 -15.2 -9.8 -14.65 -10 -14.1 -9.75 -13.7 Z"/>
</g>

<g id="Layer0_1_MEMBER_14_FILL">
<path fill="#DA3A33" stroke="none" d="
M -37.95 -7.45
L -36.45 -7
Q -35.05 -6.6 -34.9 -6.5
L -34.3 -6.1
Q -34.1 -6.8 -34.65 -7.5 -35.25 -8.2 -36.35 -8.6 -37.75 -9.1 -39.9 -8 -38.85 -5.85 -37.45 -5.35 -35.35 -4.65 -34.5 -5.75 -36 -6.8 -37.95 -7.45 Z"/>
</g>

<g id="Layer0_1_MEMBER_15_FILL">
<path fill="#DA3A33" stroke="none" d="
M -31.7 3.35
Q -31 2.25 -31.25 1.3 -33.7275390625 2.020703125 -36.1 3.5
L -32.5 1.1 -31.45 0.7
Q -32.05 -0.2 -33.5 -0.2 -34.95 -0.2 -36.4 0.75 -37.65 1.5 -38.55 3.6 -39 4.65 -39.2 5.55 -38.3 5.8 -37.15 5.85 -34.9 6 -33.65 5.25 -32.35 4.45 -31.7 3.35 Z"/>
</g>

<g id="Layer0_1_MEMBER_16_FILL">
<path fill="#DA3A33" stroke="none" d="
M -33.3 8.2
Q -32.95 7.2 -32.7 6.75
L -32.25 6.15
Q -32.95 5.9 -33.7 6.45 -34.45 6.95 -34.9 8 -35.5 9.4 -34.55 11.6 -32.3 10.75 -31.7 9.35 -31.35 8.45 -31.4 7.6 -31.45 6.75 -31.9 6.35 -33.1 7.8 -33.8 9.7
L -33.3 8.2 Z"/>
</g>

<g id="Layer0_1_MEMBER_17_FILL">
<path fill="#DA3A33" stroke="none" d="
M -38.85 -3.55
Q -37.7 -1.45 -36.2 -1.05 -35.3 -0.8 -34.45 -0.95 -33.65 -1.15 -33.25 -1.65 -34.9 -2.6 -36.85 -3.1
L -35.35 -2.75
Q -34.5 -2.65 -33.8 -2.35
L -33.15 -2.05
Q -32.95 -2.7 -33.6 -3.4 -34.25 -4.1 -35.35 -4.4 -36.8 -4.75 -38.85 -3.55 Z"/>
</g>

<g id="Layer0_1_MEMBER_18_FILL">
<path fill="#DA3A33" stroke="none" d="
M -3.4 1.55
Q -4.05 1.55 -5.05 1.6 -7.1 1.7 -8.55 2.1 -8.3 2.9 -7.3 3.4 -6.3 3.95 -5 3.95 -3 4 -0.75 1.75 -2.9 -0.65 -4.95 -0.65 -6.45 -0.65 -7.5 0 -8.55 0.6 -8.65 1.55
L -7.7 1.35
Q -6.9 1.3 -5.5 1.4
L -3.4 1.55 Z"/>
</g>

<g id="Layer0_1_MEMBER_19_FILL">
<path fill="#DA3A33" stroke="none" d="
M -10.75 -9.45
Q -11.2 -8.85 -11.65 -8 -12.55 -6.3 -12.35 -5.1 -12.15 -3.85 -11.55 -2.95 -10.95 -2.05 -10.15 -1.9 -9.8341796875 -4.0650390625 -10.2 -6.4
L -9.55 -2.85 -9.6 -1.9
Q -8.7 -2.05 -8.25 -3.2 -7.75 -4.3 -7.95 -5.75 -8.25 -7.65 -10.75 -9.45 Z"/>
</g>

<g id="Layer0_1_MEMBER_20_FILL">
<path fill="#DA3A33" stroke="none" d="
M -6.85 -3.95
Q -7.25 -3.2 -7.1 -2.55 -5.38203125 -3.1072265625 -3.75 -4.25
L -6.2 -2.45 -6.95 -2.2
Q -6.5 -1.55 -5.5 -1.6 -4.5 -1.6 -3.55 -2.3 -2.25 -3.2 -1.8 -5.65 -4.3 -6.15 -5.55 -5.3 -6.4 -4.7 -6.85 -3.95 Z"/>
</g>

<g id="Layer0_1_MEMBER_21_FILL">
<path fill="#DA3A33" stroke="none" d="
M -11.15 -15
Q -13.1 -13.95 -13.5 -12.6 -13.75 -11.7 -13.6 -10.95 -13.45 -10.2 -13 -9.85 -12.05 -11.3 -11.6 -13.15 -11.7 -12.4 -11.9 -11.75
L -12.3 -10.3 -12.65 -9.7
Q -12 -9.5 -11.35 -10.1 -10.7 -10.7 -10.45 -11.7 -10 -13.1 -11.15 -15 Z"/>
</g>

<g id="Layer0_1_MEMBER_22_FILL">
<path fill="#DA3A33" stroke="none" d="
M -29.65 -13.25
L -29.4 -12.55
Q -28.85 -12.9 -28.8 -13.8 -28.75 -14.65 -29.3 -15.6 -30.05 -16.8 -32.15 -17.35 -32.8 -15.2 -32.1 -13.95 -31.65 -13.2 -31 -12.75 -30.35 -12.35 -29.8 -12.45 -30.2 -14.15 -31.2 -15.75
L -30.4 -14.55
Q -29.9 -13.75 -29.65 -13.25 Z"/>
</g>

<g id="Layer0_1_MEMBER_23_FILL">
<path fill="#DA3A33" stroke="none" d="
M -14.15 -14.15
L -14.35 -13.6
Q -13.8 -13.55 -13.35 -14.15 -12.9 -14.75 -12.85 -15.6 -12.75 -16.75 -14 -18.1 -15.4 -16.95 -15.5 -15.8 -15.65 -14.2 -14.65 -13.65 -14.15 -15 -14.05 -16.55
L -14.15 -14.15 Z"/>
</g>

<g id="Layer0_1_MEMBER_24_FILL">
<path fill="#DA3A33" stroke="none" d="
M -8.95 -10.15
L -9.4 -9.75
Q -8.95 -9.45 -8.3 -9.7 -7.6 -9.95 -7.05 -10.65 -6.35 -11.5 -6.6 -13.35 -8.45 -13.15 -9.15 -12.25 -10.15 -10.9 -9.6 -10 -8.45 -10.85 -7.5 -12.1
L -8.2 -11.1
Q -8.75 -10.3 -8.95 -10.15 Z"/>
</g>

<g id="Layer0_1_MEMBER_25_FILL">
<path fill="#DA3A33" stroke="none" d="
M -33.15 -12.6
Q -34.05 -12.8 -34.8 -12.85 -35 -9.9 -33.75 -8.5 -32.95 -7.6 -32 -7.25 -31.05 -6.9 -30.35 -7.15 -31.35 -9.2 -33.05 -11.05
L -31.65 -9.7
Q -30.75 -8.75 -30.4 -8.2
L -29.9 -7.45
Q -29.25 -8 -29.5 -9.15 -29.7 -10.3 -30.6 -11.3 -31.4 -12.2 -33.15 -12.6 Z"/>
</g>

<g id="Layer0_1_MEMBER_26_FILL">
<path fill="#DA3A33" stroke="none" d="
M -21.35 -16.25
L -20.6 -14.6
Q -20.15 -13.55 -19.95 -12.85
L -19.85 -12
Q -19.05 -12.3 -18.85 -13.35 -18.6 -14.45 -19.1 -15.65 -19.7 -17.35 -22.25 -18.45 -23.45 -15.95 -22.85 -14.3 -22.45 -13.2 -21.7 -12.55 -21 -11.85 -20.3 -11.9 -20.45 -14.05 -21.35 -16.25 Z"/>
</g>

<g id="Layer0_1_MEMBER_27_FILL">
<path fill="#DA3A33" stroke="none" d="
M 554.95 56.55
Q 555.95 76.1 548.55 92.3 542.1 105.65 540.8 115.8 539.15 112.2 530.6 104.45 523.8 97.95 522.55 89.7 521.5 106.1 529.05 116.4 529.4 116.95 529.85 117.5 536 125.9 538.55 135.2 538.1 143.8 538.8 152.45 524.95 132.3 495.7 140.25 528.6 142.65 542.8 176.55 534.8 173.4 516.3 175.7 497.75 178.1 487.55 166.2 496.15 184.95 520.35 185.85 542.2 187.55 549.25 196.7 549.25 196.9 549.45 197.1 556.95 218.6 556.95 252.85 556.85 287.35 553.3 310.25
L 585.4 310.25
Q 581.85 287.35 581.75 252.85 581.75 240.5 582.8 229.8 584.5 211.5 596.3 195.85 607.9 184.4 625.3 182.1 647.8 178.45 661.2 169.9 642.55 172.55 632.3 169.85 646.45 150.05 646.45 127.7 636.5 154.55 614.35 167.1 628.9 141.1 621.5 106.1 618.5 89.45 620.75 72.45 611.55 92.6 612.85 118.75 611.5 146.85 593.7 161.2 578.65 173.75 570.05 188.2 569.35 179.05 564.05 168.45 556.5 148.85 569.05 132.45 581.45 116.1 584.35 100.6 579 110.75 568.05 118.45 558.4 126.65 554.6 137.1 552.05 122 557.65 100.7 562.95 75.25 554.95 56.55 Z"/>
</g>

<g id="Layer0_2_FILL">
<path fill="#0976BE" stroke="none" d="
M 85 40
Q 85 39.2 84.4 38.6 83.85 38 83 38
L 82.5 38
Q 82 38 82 37.5
L 82 9
Q 82 8.2 81.4 7.6 80.85 7 80 7 78.75 7 20 7 19.15 7 18.55 7.6 18 8.15 18 9
L 18 11
Q 18 11.85 18.55 12.45 19.15 13 20 13
L 30.5 13
Q 31 13 31 13.5
L 31 29.5
Q 31 30 31.5 30
L 68.5 30
Q 69 30 69 29.5
L 69 13.5
Q 69 13 69.5 13
L 79.5 13
Q 80 13 80 13.5
L 80 37.5
Q 80 38 79.5 38
L 79 38
Q 78.15 38 77.55 38.6 77 39.15 77 40
L 77 49.5
Q 77 50 77.5 50
L 84.5 50
Q 85 50 85 49.5
L 85 40 Z"/>
</g>

<g id="Layer0_3_FILL">
<path fill="#0976BE" stroke="none" d="
M 240.4 183.8
Q 240.05 183.55 239.75 183.7 231.85 188.35 227.2 196.25 222.45 204.4 222.45 213.9
L 222.45 219.9
Q 222.45 220.9 223.45 220.9
L 291.45 220.9
Q 291.85 220.9 292.15 220.65 292.45 220.35 292.45 219.9
L 292.45 213.9
Q 292.45 204.45 287.65 196.25 283 188.35 275.1 183.7 274.8 183.55 274.45 183.8 267.4 190.95 257.45 190.95 247.45 190.95 240.4 183.8 Z"/>
</g>

<g id="Layer0_4_FILL">
<path fill="#0976BE" stroke="none" d="
M 69.4 34.4
Q 69.3 34 68.9 34
L 31.05 34
Q 30.65 34 30.55 34.4 28.25 43.85 34.3 51.45 40.35 59 50 59 59.6 59 65.65 51.45 71.7 43.85 69.4 34.4 Z"/>
</g>

<g id="Layer0_5_FILL">
<path fill="#DB3B34" stroke="none" d="
M 328.6 90.15
Q 327.1 85.05 324.35 82.35 321.65 79.55 316.4 78.2 312.7 77.15 307.9 76.9
L 206.2 76.9
Q 211 77.15 214.7 78.2 219.95 79.55 222.6 82.35 225.4 85.05 226.85 90.15 228.25 95.25 228.25 102.4
L 228.65 144 230.45 149.4 332.15 149.4 330.4 144 330.1 140.5 329.95 102.4
Q 329.95 95.25 328.6 90.15 Z"/>
</g>

<g id="Layer0_6_FILL">
<path fill="#FFFFFF" stroke="none" d="
M 279.4 111.35
Q 280.85 111.35 281.9 110.3 282.9 109.3 282.9 107.85 282.9 106.35 281.9 105.3 280.85 104.3 279.4 104.3 277.9 104.3 276.9 105.3 275.9 106.35 275.9 107.85 275.9 109.3 276.9 110.3 277.9 111.35 279.4 111.35
M 303.45 139.85
Q 303.45 139.95 303.45 140 303.45 140.95 304.15 141.7 304.85 142.4 305.9 142.4 306.9 142.4 307.65 141.7 308.35 140.95 308.35 140
L 308.35 126.55 303.45 126.55 303.45 139.85
M 284.65 125.55
Q 284.65 125.7 284.7 125.75 284.85 126 285.05 126.3 285.6 126.75 286.25 126.75 286.95 126.75 287.4 126.3 287.95 125.8 287.95 125.15 287.95 124.85 287.8 124.65 287.8 124.55 287.75 124.45
L 284.25 113.8
Q 283.95 112.8 283.05 112.6
L 275.25 112.6
Q 274.55 112.7 274.15 113.35
L 270.7 124.45
Q 270.55 124.55 270.55 124.7 270.5 124.9 270.5 125.15 270.5 125.8 271 126.3 271.5 126.75 272.2 126.75 272.9 126.75 273.35 126.3 273.7 125.9 273.85 125.4
L 275.15 121 275.4 140.25
Q 275.35 140.45 275.35 140.6 275.35 141.3 275.85 141.75 276.35 142.3 277.05 142.3 277.7 142.3 278.2 141.75 278.75 141.3 278.75 140.6 278.75 140.45 278.7 140.25
L 278.7 129.15
Q 278.75 128.75 279.3 128.7 279.95 128.7 279.95 129.35
L 279.95 140.2
Q 279.85 140.35 279.85 140.6 279.85 141.3 280.35 141.75 280.85 142.3 281.55 142.3 282.25 142.3 282.7 141.75 283.2 141.3 283.2 140.6 283.2 140.5 283.2 140.45
L 283.2 121.05 284.65 125.55
M 298.75 126.55
L 293.85 126.55 293.9 140.15
Q 294 141.1 294.6 141.7 295.35 142.4 296.35 142.4 297.4 142.4 298.1 141.7 298.7 141.1 298.75 140.25
L 298.75 126.55
M 297.65 95
Q 299.15 96.45 301.25 96.45 303.35 96.45 304.8 95 306.3 93.45 306.3 91.35 306.3 89.3 304.8 87.75 303.35 86.3 301.25 86.3 299.15 86.3 297.65 87.75 296.15 89.3 296.15 91.35 296.15 93.45 297.65 95
M 262.15 97.95
Q 260.95 98.6 259.85 98.65
L 251.8 98.65
Q 249.6 98.5 248.65 100.45
L 241.2 116.45
Q 240.8 117.05 240.8 117.75 240.8 118.7 241.45 119.4 242.2 120.2 243.25 120.2 244.3 120.2 244.95 119.4 245.3 119.1 245.5 118.7
L 248.8 111.55
Q 249.35 111.1 249.45 111.95
L 248.6 139.8
Q 248.55 139.9 248.55 140 248.55 140.95 249.25 141.7 250 142.4 251 142.4 252 142.4 252.65 141.7 253.4 140.95 253.4 140
L 253.85 124.45
Q 253.85 124.25 253.85 124.15 253.85 123.4 254.2 122.85 254.3 122.6 254.5 122.4 255.3 121.65 256.25 121.65 257.3 121.65 258 122.4 258.65 123.05 258.7 124 258.7 124.05 258.7 124.15
L 259.25 139.65
Q 259.25 139.8 259.25 140 259.25 140.95 259.95 141.7 260.65 142.4 261.7 142.4 262.7 142.4 263.4 141.7 264.1 140.95 264.1 140 264.1 139.9 264.1 139.8
L 263.35 120.55 263.95 103.75
Q 264.05 102.65 265.05 101.9
L 278.15 94.65
Q 278.85 94.4 279.45 94.65
L 294.85 103.15
Q 295.35 103.45 295.05 104.5
L 291.25 125.25 310.9 125.25 308.15 111.55
Q 308.65 111.2 309.25 112
L 312 117.85
Q 312.05 118.3 312.35 118.65 312.45 118.85 312.6 118.95 313.3 119.65 314.3 119.65 315.35 119.65 316 118.95 316.75 118.25 316.75 117.2 316.75 116.85 316.65 116.55 316.65 116.5 316.65 116.45 316.55 116.1 316.3 115.85
L 309.1 100.4
Q 308.1 98.5 305.8 98.65
L 296.75 98.65 279.65 89.3
Q 278.95 88.75 277.9 89.3
L 262.15 97.95
M 251.2 91.35
Q 251.2 93.45 252.65 95 254.2 96.45 256.3 96.45 258.45 96.45 259.9 95 261.35 93.45 261.35 91.35 261.35 89.3 259.9 87.75 258.45 86.3 256.3 86.3 254.2 86.3 252.65 87.75 251.2 89.3 251.2 91.35 Z"/>
</g>
</defs>

<g transform="matrix( 1, 0, 0, 1, 0,0) ">
<use xlink:href="#Layer0_0_FILL"/>
</g>

<g transform="matrix( 7.1501922607421875, 0, 0, 7.14349365234375, 715,134.35) ">
<use xlink:href="#Layer0_1_MEMBER_0_FILL"/>
</g>

<g transform="matrix( 7.1501922607421875, 0, 0, 7.14349365234375, 715,134.35) ">
<use xlink:href="#Layer0_1_MEMBER_1_FILL"/>
</g>

<g transform="matrix( 7.1501922607421875, 0, 0, 7.14349365234375, 715,134.35) ">
<use xlink:href="#Layer0_1_MEMBER_2_FILL"/>
</g>

<g transform="matrix( 7.1501922607421875, 0, 0, 7.14349365234375, 715,134.35) ">
<use xlink:href="#Layer0_1_MEMBER_3_FILL"/>
</g>

<g transform="matrix( 7.1501922607421875, 0, 0, 7.14349365234375, 715,134.35) ">
<use xlink:href="#Layer0_1_MEMBER_4_FILL"/>
</g>

<g transform="matrix( 7.1501922607421875, 0, 0, 7.14349365234375, 715,134.35) ">
<use xlink:href="#Layer0_1_MEMBER_5_FILL"/>
</g>

<g transform="matrix( 7.1501922607421875, 0, 0, 7.14349365234375, 715,134.35) ">
<use xlink:href="#Layer0_1_MEMBER_6_FILL"/>
</g>

<g transform="matrix( 6.19219970703125, 3.57275390625, -3.57379150390625, 6.186492919921875, 703.05,269.7) ">
<use xlink:href="#Layer0_1_MEMBER_7_FILL"/>
</g>

<g transform="matrix( 7.09356689453125, 0.897430419921875, -0.8976898193359375, 7.0869140625, 706.35,169.8) ">
<use xlink:href="#Layer0_1_MEMBER_8_FILL"/>
</g>

<g transform="matrix( 7.1501922607421875, 0, 0, 7.14349365234375, 715,134.35) ">
<use xlink:href="#Layer0_1_MEMBER_9_FILL"/>
</g>

<g transform="matrix( 7.1501922607421875, 0, 0, 7.14349365234375, 715,134.35) ">
<use xlink:href="#Layer0_1_MEMBER_10_FILL"/>
</g>

<g transform="matrix( 7.1501922607421875, 0, 0, 7.14349365234375, 715,134.35) ">
<use xlink:href="#Layer0_1_MEMBER_11_FILL"/>
</g>

<g transform="matrix( 7.1501922607421875, 0, 0, 7.14349365234375, 715,134.35) ">
<use xlink:href="#Layer0_1_MEMBER_12_FILL"/>
</g>

<g transform="matrix( 7.1501922607421875, 0, 0, 7.14349365234375, 715,134.35) ">
<use xlink:href="#Layer0_1_MEMBER_13_FILL"/>
</g>

<g transform="matrix( 7.1501922607421875, 0, 0, 7.14349365234375, 715,134.35) ">
<use xlink:href="#Layer0_1_MEMBER_14_FILL"/>
</g>

<g transform="matrix( 7.1306610107421875, 0.5276947021484375, -0.52783203125, 7.12396240234375, 712.3,150.4) ">
<use xlink:href="#Layer0_1_MEMBER_15_FILL"/>
</g>

<g transform="matrix( 7.1501922607421875, 0, 0, 7.14349365234375, 712.8,131.25) ">
<use xlink:href="#Layer0_1_MEMBER_16_FILL"/>
</g>

<g transform="matrix( 7.1501922607421875, 0, 0, 7.14349365234375, 715,134.35) ">
<use xlink:href="#Layer0_1_MEMBER_17_FILL"/>
</g>

<g transform="matrix( 7.1501922607421875, 0, 0, 7.14349365234375, 715,134.35) ">
<use xlink:href="#Layer0_1_MEMBER_18_FILL"/>
</g>

<g transform="matrix( 7.1501922607421875, 0, 0, 7.14349365234375, 715,134.35) ">
<use xlink:href="#Layer0_1_MEMBER_19_FILL"/>
</g>

<g transform="matrix( 7.1501922607421875, 0, 0, 7.14349365234375, 715,134.35) ">
<use xlink:href="#Layer0_1_MEMBER_20_FILL"/>
</g>

<g transform="matrix( 7.1501922607421875, 0, 0, 7.14349365234375, 715,134.35) ">
<use xlink:href="#Layer0_1_MEMBER_21_FILL"/>
</g>

<g transform="matrix( 7.1501922607421875, 0, 0, 7.14349365234375, 715,134.35) ">
<use xlink:href="#Layer0_1_MEMBER_22_FILL"/>
</g>

<g transform="matrix( 7.1501922607421875, 0, 0, 7.14349365234375, 715,134.35) ">
<use xlink:href="#Layer0_1_MEMBER_23_FILL"/>
</g>

<g transform="matrix( 7.1501922607421875, 0, 0, 7.14349365234375, 715,134.35) ">
<use xlink:href="#Layer0_1_MEMBER_24_FILL"/>
</g>

<g transform="matrix( 7.1501922607421875, 0, 0, 7.14349365234375, 715,134.35) ">
<use xlink:href="#Layer0_1_MEMBER_25_FILL"/>
</g>

<g transform="matrix( 7.1501922607421875, 0, 0, 7.14349365234375, 715,134.35) ">
<use xlink:href="#Layer0_1_MEMBER_26_FILL"/>
</g>

<g transform="matrix( 1, 0, 0, 1, 0,0) ">
<use xlink:href="#Layer0_1_MEMBER_27_FILL"/>
</g>

<g transform="matrix( 0.544921875, 0, 0, 0.5447998046875, 73.55,80.4) ">
<use xlink:href="#Layer0_2_FILL"/>
</g>

<g transform="matrix( 0.3479461669921875, 0, 0, 0.34783935546875, 11.25,48.55) ">
<use xlink:href="#Layer0_3_FILL"/>
</g>

<g transform="matrix( 0.544921875, 0, 0, 0.5447998046875, 73.55,80.4) ">
<use xlink:href="#Layer0_4_FILL"/>
</g>

<g transform="matrix( 1, 0, 0, 1, 60.4,47.2) ">
<use xlink:href="#Layer0_5_FILL"/>
</g>

<g transform="matrix( 1, 0, 0, 1, 57.6,48) ">
<use xlink:href="#Layer0_6_FILL"/>
</g>
</svg>
